<?xml version="1.0" encoding="utf-8"?>
<!-- Generator: Adobe Illustrator 21.0.0, SVG Export Plug-In . SVG Version: 6.00 Build 0)  -->
<svg version="1.1" id="Layer_1" xmlns="http://www.w3.org/2000/svg" xmlns:xlink="http://www.w3.org/1999/xlink" x="0px" y="0px"
	 viewBox="0 0 512 512" style="enable-background:new 0 0 512 512;" xml:space="preserve">
<g transform="translate(0 -1)">
	<g>
		<g>
			<path d="M496.2,219l-136-97.7c-5.1-4.1-12-4.7-17.8-1.7c-5.8,3.1-9.4,9.3-9.4,16.1v43.9H185c-9.4,0-17,8-17,18v71.8
				c0,9.9,7.6,18,17,18h148V331c0,6.8,3.6,13,9.4,16c2.4,1.3,5,1.9,7.6,1.9c3.6,0,7.2-1.2,10.2-3.6l136-97.7
				c4.3-3.4,6.8-8.7,6.8-14.4C503,227.7,500.5,222.3,496.2,219z"/>
			<path d="M80.6,177.6c-9.4,0-16.6-1.2-16.6,8.7v92c0,9.9,7.2,9.5,16.6,9.5s21,0.4,21-9.5v-92C101.6,176.4,90,177.6,80.6,177.6z"/>
			<path d="M137.6,178.6c-9.4,0-22.6-1.2-22.6,8.7v92c0,9.9,13.2,9.5,22.6,9.5s21,0.4,21-9.5v-92C158.6,177.4,147,178.6,137.6,178.6
				z"/>
		</g>
	</g>
</g>
<path d="M27.6,177.6c-9.4,0-16.6-1.2-16.6,8.7v92c0,9.9,7.2,9.5,16.6,9.5s18,0.4,18-9.5v-92C45.6,176.4,37,177.6,27.6,177.6z"/>
</svg>
